PathFileType  4	(X/Y/Z) E:\AxonAIRepo\axonai_vps\Data\session_74dd741a74\MarkerData\OpenPose_default\PreAugmentation
DataRate	CameraRate	NumFrames	NumMarkers	Units	OrigDataRate	OrigDataStartFrame	OrigNumFrames
60.0	60.0	17	20	m	60.0	150	398
Frame#	Time	Neck			RShoulder			RElbow			RWrist			LShoulder			LElbow			LWrist			midHip			RHip			RKnee			RAnkle			LHip			LKnee			LAnkle			LBigToe			LSmallToe			LHeel			RBigToe			RSmallToe			RHeel			
		X1	Y1	Z1	X2	Y2	Z2	X3	Y3	Z3	X4	Y4	Z4	X5	Y5	Z5	X6	Y6	Z6	X7	Y7	Z7	X8	Y8	Z8	X9	Y9	Z9	X10	Y10	Z10	X11	Y11	Z11	X12	Y12	Z12	X13	Y13	Z13	X14	Y14	Z14	X15	Y15	Z15	X16	Y16	Z16	X17	Y17	Z17	X18	Y18	Z18	X19	Y19	Z19	X20	Y20	Z20	

150	2.4833333	-3.6688800	1.5440900	0.2677800	-3.6268000	1.5490400	0.4445400	-3.2382100	1.1927900	0.5072700	-3.1499300	0.9551600	0.4618700	-3.5959300	1.5505100	0.0824400	-3.3115400	1.2246500	-0.0344400	-3.2207500	0.9802400	-0.0327300	-3.5761000	0.9809100	0.2522400	-3.3768800	0.9714500	0.3568400	-3.2813200	0.5186800	0.3402900	-3.4366800	0.1333800	0.3707800	-3.2905300	0.9975000	0.1265100	-3.2724300	0.5434500	0.1106000	-3.4822000	0.1459500	0.0520400	-3.4824500	0.0770900	0.0529400	-3.4251600	0.0871400	0.0158600	-3.5804500	0.1025700	0.0628200	-3.3116000	0.0799100	0.3396100	-3.3566000	0.1025200	0.3948400	-3.3846100	0.1259700	0.3384400
151	2.5000000	-3.7012700	1.5465300	0.2643700	-3.6641500	1.5487700	0.4432900	-3.2306800	1.1900500	0.5043200	-3.1559800	0.9505900	0.4622500	-3.5712000	1.5488300	0.0794600	-3.3289300	1.2252400	-0.0380400	-3.2246600	0.9756000	-0.0329800	-3.6144100	0.9789500	0.2500900	-3.3585800	0.9687200	0.3528500	-3.2604900	0.5206900	0.3364400	-3.4365100	0.1331800	0.3707900	-3.2985800	0.9946900	0.1258500	-3.2740300	0.5403300	0.1098700	-3.5064600	0.1417100	0.0554500	-3.4694900	0.0784100	0.0544000	-3.4190000	0.0881100	0.0151200	-3.5806800	0.1018400	0.0629900	-3.3054700	0.0818700	0.3384000	-3.3563700	0.1035400	0.3947300	-3.4161600	0.1178200	0.3429300
152	2.5166667	-3.7052400	1.5503400	0.2587700	-3.6911600	1.5486500	0.4423300	-3.2320300	1.1875100	0.4989000	-3.1587000	0.9482400	0.4624200	-3.5736400	1.5488800	0.0783200	-3.3371800	1.2252800	-0.0385700	-3.2276200	0.9729100	-0.0331900	-3.6339500	0.9782700	0.2473100	-3.3485900	0.9683800	0.3506700	-3.2558400	0.5204600	0.3357100	-3.4367600	0.1334500	0.3707700	-3.3233100	0.9933600	0.1235200	-3.2676300	0.5401300	0.1102700	-3.5410300	0.1358000	0.0602300	-3.4503100	0.0848900	0.0559100	-3.3948900	0.0931000	0.0118500	-3.5812000	0.1008600	0.0631900	-3.2797100	0.0861100	0.3337000	-3.3551400	0.1035200	0.3946500	-3.4568700	0.1115700	0.3468000
153	2.5333333	-3.6779200	1.5518200	0.2525800	-3.6965800	1.5500400	0.4418500	-3.2383800	1.1879100	0.4917700	-3.1557700	0.9509300	0.4622300	-3.5940200	1.5496200	0.0753000	-3.3380500	1.2261500	-0.0384500	-3.2281200	0.9720400	-0.0333200	-3.6157400	0.9789500	0.2427700	-3.3281400	0.9697300	0.3466600	-3.2526200	0.5218300	0.3350000	-3.4370200	0.1336400	0.3707400	-3.3577900	0.9932300	0.1201300	-3.2735100	0.5405600	0.1096100	-3.5667700	0.1315800	0.0637300	-3.4341000	0.0925800	0.0568400	-3.3609200	0.1006900	0.0070900	-3.5826400	0.1014900	0.0632200	-3.2446000	0.0925300	0.3270900	-3.3538700	0.1031200	0.3946100	-3.4730200	0.1129900	0.3478100
154	2.5500000	-3.6506500	1.5506800	0.2485800	-3.6916800	1.5512000	0.4416100	-3.2452200	1.1923400	0.4870500	-3.1499100	0.9543000	0.4620000	-3.6055500	1.5499400	0.0684300	-3.3373800	1.2262100	-0.0386000	-3.2272800	0.9724800	-0.0334200	-3.5776300	0.9798200	0.2370600	-3.2969000	0.9716800	0.3405900	-3.2351600	0.5255400	0.3313300	-3.4371700	0.1336600	0.3707400	-3.3828200	0.9929000	0.1175400	-3.2864000	0.5390800	0.1083000	-3.5752200	0.1302700	0.0648100	-3.4263800	0.0971300	0.0571500	-3.3369400	0.1047700	0.0039400	-3.5831900	0.1012600	0.0632400	-3.2275500	0.0952600	0.3239500	-3.3535100	0.1030400	0.3946200	-3.4693700	0.1175000	0.3479700
155	2.5666667	-3.6415500	1.5496000	0.2475400	-3.6877100	1.5517900	0.4414200	-3.2422900	1.1967700	0.4846800	-3.1474600	0.9590100	0.4619100	-3.5933300	1.5486800	0.0608700	-3.3296500	1.2266300	-0.0380500	-3.2258800	0.9726600	-0.0334500	-3.5505800	0.9802500	0.2331300	-3.2738400	0.9731500	0.3361500	-3.2093400	0.5319700	0.3257300	-3.4375000	0.1338600	0.3707300	-3.3900200	0.9926600	0.1166300	-3.3000900	0.5379000	0.1068600	-3.5673800	0.1313600	0.0636300	-3.4328100	0.0955100	0.0564600	-3.3312000	0.1057600	0.0031500	-3.5832000	0.1005400	0.0632100	-3.2450500	0.0930200	0.3270900	-3.3538400	0.1032900	0.3946300	-3.4828900	0.1182600	0.3478900
156	2.5833333	-3.6431400	1.5491700	0.2478600	-3.6865400	1.5513500	0.4413200	-3.2210700	1.1979600	0.4806300	-3.1501100	0.9627700	0.4622600	-3.5734600	1.5475200	0.0566700	-3.3046400	1.2255200	-0.0354100	-3.2243600	0.9725100	-0.0333800	-3.5438600	0.9806600	0.2321300	-3.2666100	0.9744400	0.3349500	-3.1914200	0.5362100	0.3218500	-3.4375500	0.1333100	0.3707300	-3.3809900	0.9929700	0.1173300	-3.3244500	0.5366700	0.1043100	-3.5423300	0.1356500	0.0600300	-3.4616600	0.0879200	0.0537700	-3.3338100	0.1056400	0.0033500	-3.5831200	0.1001800	0.0631000	-3.2795700	0.0865900	0.3336600	-3.3539700	0.1029700	0.3946800	-3.5174300	0.1113900	0.3469700
157	2.6000000	-3.6455300	1.5496000	0.2481500	-3.6865000	1.5518800	0.4412900	-3.1898800	1.1970000	0.4744400	-3.1546000	0.9664000	0.4626600	-3.5645100	1.5468700	0.0559700	-3.2684300	1.2219800	-0.0315800	-3.2235400	0.9725400	-0.0333200	-3.5463600	0.9804500	0.2325400	-3.2666700	0.9763200	0.3353200	-3.1869100	0.5373900	0.3208900	-3.4383500	0.1337900	0.3706800	-3.3548400	0.9933900	0.1197500	-3.3572900	0.5353300	0.1009000	-3.5085300	0.1412000	0.0553100	-3.5022200	0.0764000	0.0500200	-3.3356200	0.1059000	0.0033900	-3.5830700	0.1003500	0.0629600	-3.3041200	0.0823000	0.3382800	-3.3552900	0.1029900	0.3948000	-3.5364700	0.1056800	0.3444500
158	2.6166667	-3.6463200	1.5500000	0.2481800	-3.6868200	1.5522600	0.4413200	-3.1670400	1.1943900	0.4697200	-3.1556700	0.9653100	0.4627000	-3.5649200	1.5474100	0.0564000	-3.2420000	1.2182000	-0.0290600	-3.2231800	0.9712400	-0.0334400	-3.5486500	0.9803500	0.2329000	-3.2675300	0.9775600	0.3356700	-3.1882200	0.5369700	0.3212400	-3.4383400	0.1337600	0.3706200	-3.3206600	0.9941200	0.1229700	-3.3737800	0.5351100	0.0991700	-3.4857600	0.1449400	0.0521600	-3.5305300	0.0688900	0.0474100	-3.3345800	0.1062600	0.0031700	-3.5828100	0.1003100	0.0629100	-3.3090200	0.0803500	0.3394100	-3.3600600	0.1045000	0.3950900	-3.5181000	0.1076100	0.3394700
159	2.6333333	-3.6455000	1.5491500	0.2480300	-3.6872700	1.5525300	0.4413300	-3.1584000	1.1906100	0.4680500	-3.1545200	0.9592800	0.4623900	-3.5673200	1.5479600	0.0566700	-3.2344000	1.2159000	-0.0285500	-3.2207300	0.9685200	-0.0336900	-3.5490900	0.9804000	0.2330100	-3.2682700	0.9771500	0.3357500	-3.1892300	0.5364200	0.3214900	-3.4372400	0.1328800	0.3705700	-3.2978700	0.9949500	0.1251300	-3.3571200	0.5352800	0.1008500	-3.4806400	0.1460000	0.0514200	-3.5382800	0.0685000	0.0466800	-3.3341900	0.1069300	0.0030300	-3.5830800	0.1008700	0.0628500	-3.3074200	0.0826700	0.3387000	-3.3687200	0.1086900	0.3953700	-3.4824400	0.1143900	0.3333300
160	2.6500000	-3.6427300	1.5456800	0.2477300	-3.6873400	1.5507900	0.4412700	-3.1559200	1.1877200	0.4677300	-3.1551800	0.9516800	0.4622200	-3.5693200	1.5471500	0.0568700	-3.2373000	1.2148100	-0.0288300	-3.2096600	0.9646200	-0.0330000	-3.5487000	0.9804700	0.2330600	-3.2681200	0.9771500	0.3356700	-3.1898800	0.5372100	0.3214400	-3.4365700	0.1327400	0.3705100	-3.2924200	0.9948900	0.1256700	-3.3225900	0.5365500	0.1043500	-3.4832400	0.1455100	0.0517600	-3.5356600	0.0687400	0.0470900	-3.3406000	0.1056700	0.0039200	-3.5829500	0.1007300	0.0628400	-3.3051700	0.0823700	0.3383000	-3.3740100	0.1097900	0.3956900	-3.4594200	0.1196000	0.3292700
161	2.6666667	-3.6390500	1.5414000	0.2473400	-3.6862300	1.5457300	0.4410500	-3.1541300	1.1869200	0.4675100	-3.1575600	0.9479000	0.4622600	-3.5690100	1.5443100	0.0569500	-3.2418100	1.2125600	-0.0289700	-3.1847800	0.9629900	-0.0302900	-3.5484300	0.9804500	0.2330100	-3.2676700	0.9774000	0.3356000	-3.1900900	0.5375000	0.3214000	-3.4363900	0.1329700	0.3704700	-3.2949000	0.9945600	0.1254900	-3.2965800	0.5383900	0.1069700	-3.4854600	0.1453300	0.0520200	-3.5352100	0.0693500	0.0473000	-3.3567200	0.1027500	0.0060600	-3.5828900	0.1007300	0.0628200	-3.3055800	0.0821700	0.3383000	-3.3749200	0.1120900	0.3957100	-3.4555300	0.1213800	0.3283200
162	2.6833333	-3.6367100	1.5382700	0.2470700	-3.6840600	1.5395500	0.4406900	-3.1593300	1.1865500	0.4687600	-3.1576700	0.9473300	0.4623300	-3.5589100	1.5394200	0.0558100	-3.2451400	1.2092800	-0.0289500	-3.1540500	0.9618000	-0.0263600	-3.5495200	0.9800000	0.2325600	-3.2688000	0.9761900	0.3356400	-3.1891500	0.5373700	0.3213000	-3.4363500	0.1330500	0.3704600	-3.2975900	0.9936000	0.1253400	-3.2884600	0.5391800	0.1077900	-3.4857200	0.1452600	0.0520500	-3.5361900	0.0695000	0.0472700	-3.3737400	0.1000000	0.0082300	-3.5828700	0.1009100	0.0627900	-3.3057200	0.0827900	0.3387000	-3.3695400	0.1151300	0.3956600	-3.4573000	0.1215300	0.3287500
163	2.7000000	-3.6361900	1.5371000	0.2469900	-3.6826900	1.5341200	0.4404500	-3.1814800	1.1867400	0.4735900	-3.1542500	0.9504700	0.4621700	-3.5311800	1.5344000	0.0521600	-3.2466600	1.2065300	-0.0288900	-3.1355200	0.9580300	-0.0235700	-3.5525900	0.9769700	0.2320300	-3.2708100	0.9739100	0.3357800	-3.1851800	0.5352100	0.3210200	-3.4364000	0.1329600	0.3704700	-3.2992000	0.9916800	0.1253700	-3.2966100	0.5384600	0.1070300	-3.4853300	0.1453400	0.0520000	-3.5343600	0.0727700	0.0471400	-3.3869400	0.0972400	0.0100400	-3.5823700	0.1004800	0.0628100	-3.3028000	0.0868300	0.3390300	-3.3611100	0.1195900	0.3954600	-3.4550800	0.1244800	0.3289600
164	2.7166667	-3.6363700	1.5372500	0.2469700	-3.6831400	1.5315200	0.4404300	-3.2135100	1.1866800	0.4805300	-3.1495000	0.9550100	0.4618800	-3.4944900	1.5314900	0.0471500	-3.2466700	1.2064700	-0.0288400	-3.1344600	0.9523300	-0.0227000	-3.5560200	0.9729500	0.2335200	-3.2720400	0.9726500	0.3359200	-3.1794700	0.5320000	0.3205900	-3.4366100	0.1329400	0.3704800	-3.2995000	0.9909800	0.1254600	-3.3217400	0.5357700	0.1046300	-3.4849100	0.1451900	0.0519800	-3.5215800	0.0785300	0.0479500	-3.4033100	0.0945000	0.0121900	-3.5821700	0.1004400	0.0628200	-3.2919200	0.0925000	0.3378900	-3.3514100	0.1204100	0.3951400	-3.4486600	0.1292000	0.3286800
165	2.7333333	-3.6364400	1.5373900	0.2469500	-3.6844200	1.5300400	0.4405200	-3.2292800	1.1865800	0.4839700	-3.1463600	0.9581900	0.4616200	-3.4698200	1.5305700	0.0437400	-3.2452400	1.2055400	-0.0287000	-3.1401500	0.9484700	-0.0226500	-3.5559900	0.9702300	0.2394700	-3.2725000	0.9724200	0.3360600	-3.1755600	0.5304300	0.3201900	-3.4369000	0.1330700	0.3704700	-3.2987300	0.9914200	0.1256000	-3.3557000	0.5323400	0.1014100	-3.4848500	0.1452400	0.0520000	-3.4922000	0.0849800	0.0506700	-3.4187500	0.0917000	0.0143000	-3.5821800	0.1005800	0.0628300	-3.2698000	0.0966600	0.3336600	-3.3434000	0.1179800	0.3947200	-3.4454100	0.1331100	0.3285400
166	2.7500000	-3.6363700	1.5373700	0.2469300	-3.6850700	1.5296000	0.4405600	-3.2132400	1.1867300	0.4805300	-3.1455100	0.9592600	0.4614600	-3.4638800	1.5304200	0.0429300	-3.2418900	1.2023500	-0.0286100	-3.1431800	0.9477600	-0.0225700	-3.5541400	0.9696000	0.2480100	-3.2727600	0.9721900	0.3361700	-3.1744400	0.5306300	0.3199700	-3.4371400	0.1333300	0.3704500	-3.2994400	0.9904400	0.1257400	-3.3795200	0.5300600	0.0991800	-3.4849200	0.1453900	0.0520300	-3.4552600	0.0916600	0.0544100	-3.4243200	0.0900000	0.0152400	-3.5823800	0.1009100	0.0628400	-3.2429300	0.0981900	0.3275900	-3.3390600	0.1157900	0.3943900	-3.4528100	0.1324000	0.3300200
